<svg xmlns="http://www.w3.org/2000/svg" xmlns:xlink="http://www.w3.org/1999/xlink" version="1.1" id="Layer_1" x="0px" y="0px" width="30px" height="40px" viewBox="0 0 66.666 100" enable-background="new 0 0 66.666 100" xml:space="preserve" style="fill:rgb(198,0,0)">
<path d="M33.333,4.884C14.931,4.884,0.015,19.8,0.015,38.202c0,18.4,29.148,54.77,29.148,54.77c2.293,2.86,6.044,2.86,8.339,0  c0,0,29.148-36.369,29.148-54.77C66.65,19.8,51.734,4.884,33.333,4.884z M36.845,86.185c-1.934,2.407-5.092,2.407-7.023,0  c0,0-24.544-30.626-24.544-46.119c0-15.496,12.56-28.056,28.054-28.056c15.493,0,28.054,12.56,28.056,28.056  C61.388,55.559,36.845,86.185,36.845,86.185z"/>
<circle cx="33.333" cy="37.999" r="11.16"/>
</svg>